<svg xmlns="http://www.w3.org/2000/svg" width="71.649" height="71.649" viewBox="0 0 71.649 71.649">
  <g id="Group_43" data-name="Group 43" transform="translate(-355.309 -59.339)">
    <g id="Group_42" data-name="Group 42">
      <path id="Path_20" data-name="Path 20" d="M369.823,85.358a16.3,16.3,0,0,1,1.784-5.636c2.421-3.951,6.207-5.468,10.573-5.575q8.93-.219,17.868,0c4.042.1,7.639,1.429,10.1,4.932a13.07,13.07,0,0,1,2.215,7.507c.087,5.721.127,11.448-.005,17.168-.106,4.607-1.707,8.538-6.021,10.88a13.611,13.611,0,0,1-6.4,1.578c-5.878.067-11.76.125-17.635-.009-4.409-.1-8.24-1.589-10.69-5.583a16.278,16.278,0,0,1-1.784-5.635Zm21.326-7.177c-2.92,0-5.841-.056-8.76.012-4.56.108-7.364,2.244-8.193,6.17a12.721,12.721,0,0,0-.312,2.544c-.027,5.529-.1,11.059.012,16.585.113,5.5,2.893,8.441,8.2,8.636,5.991.22,11.992.2,17.985,0,4.419-.147,7.045-2.274,7.89-6.092a9.928,9.928,0,0,0,.3-2.077c.033-6.3.378-12.613-.191-18.9a7.118,7.118,0,0,0-6.546-6.671C398.079,77.915,394.608,78.252,391.149,78.181Z" fill="#fff" stroke="#fff" stroke-width="1"/>
      <path id="Path_21" data-name="Path 21" d="M402.131,95.244a11.043,11.043,0,1,1-10.972-11.035A11.07,11.07,0,0,1,402.131,95.244Zm-4.094-.054a6.949,6.949,0,1,0-6.966,6.862A6.943,6.943,0,0,0,398.037,95.19Z" fill="#fff" stroke="#fff" stroke-width="1"/>
      <path id="Path_22" data-name="Path 22" d="M402.431,81.326a2.626,2.626,0,1,1-2.671,2.661A2.674,2.674,0,0,1,402.431,81.326Z" fill="#fff" stroke="#fff" stroke-width="1"/>
    </g>
    <rect id="Rectangle_22" data-name="Rectangle 22" width="67.649" height="67.649" rx="12.613" transform="translate(357.309 61.339)" fill="none" stroke="#fff" stroke-linecap="round" stroke-linejoin="round" stroke-width="4"/>
  </g>
</svg>
