<svg xmlns="http://www.w3.org/2000/svg" width="71.649" height="71.649" viewBox="0 0 71.649 71.649">
  <g id="Group_28" data-name="Group 28" transform="translate(-72.985 -59.339)">
    <g id="Group_27" data-name="Group 27">
      <path id="Path_6" data-name="Path 6" d="M99.321,81.879a3.583,3.583,0,0,1-3.795,3.8,3.65,3.65,0,0,1-3.8-3.606,3.848,3.848,0,0,1,3.8-3.985A3.689,3.689,0,0,1,99.321,81.879Z" fill="#fff" stroke="#fff" stroke-width="1"/>
      <rect id="Rectangle_10" data-name="Rectangle 10" width="7.591" height="24.67" transform="translate(91.73 87.572)" fill="#fff" stroke="#fff" stroke-width="1"/>
      <path id="Path_7" data-name="Path 7" d="M117.539,87.952a8.311,8.311,0,0,0-7.211,3.795h-.19l-.379-3.226h-6.832c0,2.088.19,4.555.19,7.4v16.32h7.59V98.769a5.845,5.845,0,0,1,.19-1.9c.569-1.328,1.518-3.036,3.606-3.036,2.657,0,3.795,2.277,3.795,5.313v13.094h7.591V98.2C125.889,91.178,122.283,87.952,117.539,87.952Z" fill="#fff" stroke="#fff" stroke-width="1"/>
    </g>
    <rect id="Rectangle_11" data-name="Rectangle 11" width="67.649" height="67.649" rx="12.613" transform="translate(74.985 61.339)" fill="none" stroke="#fff" stroke-linecap="round" stroke-linejoin="round" stroke-width="4"/>
  </g>
</svg>
