<svg xmlns="http://www.w3.org/2000/svg" width="304.701" height="142.984" viewBox="0 0 304.701 142.984">
  <path id="Path_2" data-name="Path 2" d="M38.952,29.45c21.472,6.271,39.376,18.335,56.015,33.14,10.862,9.664,24.43,22.27,27.743,37.128,1,4.5,2.653,14.121-3.109,16.072-6.788,2.3-15.337,1.986-22.347,2.111-13.627.243-27.054-.8-40.12-4.927C44.728,109.052-5.562,89.157,14.67,67.81c6.956-7.339,16.9-11.148,26.219-14.253C84.34,39.073,130.4,31.045,175.617,24.523c42.415-6.118,85.073-9.669,127.28-17.244" transform="translate(0.063 -0.5)" fill="none" stroke="#acacac" stroke-linecap="round" stroke-width="3"/>
  <path id="Path_3" data-name="Path 3" d="M2,41.064C28.463,24.844,59.472,17.571,89.454,10.8,105.31,7.216,122.789,2,139.251,2" transform="translate(0.063 -0.5)" fill="none" stroke="#acacac" stroke-linecap="round" stroke-width="3"/>
  <path id="Path_4" data-name="Path 4" d="M92.8,110.745c6.572-4.165,13.09-8.21,18.476-13.9,9.282-9.808,11.513-21.442,12.024-34.606.25-6.437.7-13.386.059-19.825-.147-1.468-3.853,13.33-3.989,15.778-.683,12.294,1.312,23.161,6.98,34.137,3.85,7.455,8.892,17.745,17.245,21.115,12.9,5.2,8.329-30.775,8.329-36.483" transform="translate(0.063 -0.5)" fill="none" stroke="#acacac" stroke-linecap="round" stroke-width="3"/>
  <path id="Path_5" data-name="Path 5" d="M151.921,62.18c0-9.429,2.174-1.376,4.81,3.167,1.712,2.953,6.877,16.5,8.446,8.8,2.234-10.969,2.581-22.047,2.581-33.2v.235a129.078,129.078,0,0,0,.234,13.139c.4,3.937,2.175,11.409,7.449,10.323,5.151-1.06,17.444-7.837,4.693-.586-38.3,21.78-77.168,46.022-108.452,77.307" transform="translate(0.063 -0.5)" fill="none" stroke="#acacac" stroke-linecap="round" stroke-width="3"/>
</svg>
