<svg xmlns="http://www.w3.org/2000/svg" width="71.649" height="71.649" viewBox="0 0 71.649 71.649">
  <g id="Group_39" data-name="Group 39" transform="translate(-355.309 -356.996)">
    <g id="Group_38" data-name="Group 38">
      <path id="Path_17" data-name="Path 17" d="M381.065,409.566l.631.376a19.9,19.9,0,1,0-6.525-6.23l.4.608-2.53,8.192Z" fill="none" stroke="#fff" stroke-linecap="round" stroke-linejoin="round" stroke-width="3"/>
    </g>
    <path id="Path_18" data-name="Path 18" d="M383.436,381.3a3.376,3.376,0,0,0-1.37.99,6.333,6.333,0,0,0-1.873,4.4c-.093,2.059.711,4.334,2.526,7.139,3.035,4.685,6.084,7.433,10.116,9.112a20.33,20.33,0,0,0,4.305,1.435,6.436,6.436,0,0,0,5.037-1.887,6.535,6.535,0,0,0,1.313-3.724c0-.509-.014-.574-.194-.775a34.008,34.008,0,0,0-5.453-2.848c-.488-.064-.681.072-1.485,1.012-1.248,1.456-1.636,1.836-1.858,1.836a13.823,13.823,0,0,1-2.813-1.413,15.721,15.721,0,0,1-5.008-5.489,1.754,1.754,0,0,1-.193-.409,3.454,3.454,0,0,1,.509-.631,5.1,5.1,0,0,0,1.184-1.772c.33-.782.316-.99-.122-2.174-.631-1.722-.832-2.26-1.177-3.186-.358-.961-.631-1.385-1-1.535A7.754,7.754,0,0,0,383.436,381.3Z" fill="#fff" stroke="#fff" stroke-width="1"/>
    <rect id="Rectangle_20" data-name="Rectangle 20" width="67.649" height="67.649" rx="12.613" transform="translate(357.309 358.996)" fill="none" stroke="#fff" stroke-linecap="round" stroke-linejoin="round" stroke-width="4"/>
  </g>
</svg>
